<svg width="16" height="21" viewBox="0 0 16 21" fill="none" xmlns="http://www.w3.org/2000/svg">
<path d="M9.97333 13.125C13.52 13.125 16 10.6863 16 7.18065C16 3.675 13.52 1.3125 9.97333 1.3125H3.16667C2.89054 1.3125 2.66667 1.53288 2.66667 1.80469V10.2798H0.5C0.223875 10.2798 0 10.5002 0 10.772V12.6328C0 12.9046 0.223875 13.125 0.5 13.125H2.66667V14.4375H0.5C0.223875 14.4375 0 14.6579 0 14.9297V16.5703C0 16.8421 0.223875 17.0625 0.5 17.0625H2.66667V19.1953C2.66667 19.4671 2.89054 19.6875 3.16667 19.6875H5.60667C5.88279 19.6875 6.10667 19.4671 6.10667 19.1953V17.0625H12.8333C13.1095 17.0625 13.3333 16.8421 13.3333 16.5703V14.9297C13.3333 14.6579 13.1095 14.4375 12.8333 14.4375H6.10667V13.125H9.97333ZM6.10667 4.13224H9.38667C11.3333 4.13224 12.5067 5.32621 12.5067 7.18065C12.5067 9.06047 11.3333 10.2798 9.33333 10.2798H6.10667V4.13224V4.13224Z" fill="#9B9A9A"/>
</svg>
